<svg width="107" height="110" viewBox="0 0 107 110" fill="none" xmlns="http://www.w3.org/2000/svg">
<path d="M37.0784 86.0802C31.8756 85.2338 27.2195 83.9876 23.3707 82.4405V109.935H9.72727V60.6436C9.72727 56.7949 11.067 53.4898 13.7466 50.7294C16.4261 47.9684 19.6342 46.5882 23.3707 46.5882H50.7219V109.935H37.0784V86.0802ZM29.425 53.8709L25.2909 72.6006L30.3186 78.1679L35.3463 72.6006L31.2181 53.8993C32.2459 53.1811 33.4469 51.6243 33.4469 51.1571C33.4469 50.4208 32.6123 49.8235 31.5832 49.8235H29.0988C28.071 49.8235 27.2364 50.4208 27.2364 51.1571C27.2364 51.6185 28.4069 53.141 29.425 53.8709Z" fill="white"/>
<path d="M89.0778 44.7176C101.027 36.4637 102 18.306 94.3442 2.06478C95.6042 -0.687811 97.3039 -0.687811 99.4445 2.06478C108.029 14.0632 109.209 34.6358 100.996 52.0792C100.955 52.1659 100.914 52.2526 100.874 52.338C100.238 51.2943 99.4685 50.3069 98.5671 49.3784C95.8947 46.6251 92.7067 45.0586 89.0778 44.7176Z" fill="white"/>
<path d="M87.9988 46.5954C91.5414 46.7028 94.599 48.081 97.1696 50.7294C99.8492 53.4898 101.189 56.795 101.189 60.6437V109.935H87.5455V82.0089C88.3839 81.5657 89.1861 81.037 89.952 80.4242C94.0997 77.3934 96.1165 73.9025 96.1165 67.7037V60.6437C96.1165 56.3129 94.5802 52.5302 91.5518 49.3978C90.452 48.2609 89.2665 47.3259 87.9988 46.5954Z" fill="white"/>
<path d="M94.171 67.7037V60.6436C94.171 56.8163 92.8313 53.5169 90.1511 50.7456C87.4715 47.9742 84.2641 46.5882 80.5276 46.5882H53.1758V109.935H66.8192V86.3202C74.6795 85.1872 81.3985 83.1529 86.1305 80.5452C87.0545 80.1085 87.9333 79.5552 88.7672 78.8829C91.5265 76.8764 94.171 74.195 94.171 67.7037Z" fill="white"/>
<path d="M17.5383 40.711C17.1388 41.2888 16.7192 41.8608 16.2802 42.4283H9.62871C2.07126 35.9726 -1.03757 30.2028 0.302844 25.1188C2.28332 17.6045 13.5611 0.934992 18.7269 1.29993C14.434 4.05252 11.6727 8.30305 11.6727 13.1204C11.6727 16.7737 14.0916 21.5904 16.9533 25.5543C17.3288 26.0745 17.3197 26.5255 16.5941 34.5872C16.3794 36.9716 16.7186 39.0228 17.5383 40.711Z" fill="white"/>
<path d="M42.6943 40.1099C43.2131 40.8915 43.7682 41.6648 44.359 42.4277H51.0105C58.5686 35.9726 61.6767 30.2028 60.3363 25.1188C58.326 17.4926 46.7389 0.434182 41.6846 1.32777C41.6237 1.38018 41.5627 1.43195 41.503 1.48306C45.6533 4.23954 48.2946 8.40918 48.2946 13.1204C48.2946 16.7737 45.8758 21.5904 43.014 25.5543C42.6385 26.0745 42.6476 26.5255 43.3733 34.5872C43.5633 36.6954 43.3201 38.5434 42.6943 40.1099Z" fill="white"/>
<path d="M29.1818 0C29.2395 0 30.5378 0 30.5949 0C39.2872 0.483353 46.1585 6.171 46.1585 13.1198C46.1585 16.9853 42.6249 22.5079 41.2449 24.4193C40.3254 25.6934 40.5627 27.1771 41.2449 34.76C41.9271 42.3435 36.1329 43.9948 33.2673 43.9948C32.3652 43.9948 31.0326 42.2063 29.8887 42.2063C28.6105 42.2063 27.5172 43.9948 26.5094 43.9948C23.6444 43.9948 17.8495 42.3429 18.5317 34.76C19.214 27.1765 19.4513 25.6934 18.5317 24.4193C17.1518 22.5086 13.6182 16.9859 13.6182 13.1204C13.6182 6.171 20.4895 0.484 29.1818 0ZM29.8232 40.0335C30.8523 40.0335 32.9288 37.5365 32.9288 36.9218C32.9288 36.1855 32.0942 35.5882 31.065 35.5882C30.5877 35.5882 29.058 35.5882 28.58 35.5882C27.5509 35.5882 26.7169 36.1855 26.7169 36.9218C26.7176 37.5365 28.794 40.0335 29.8232 40.0335Z" fill="white"/>
</svg>
